<svg width="181" height="64" viewBox="0 0 181 64" fill="none" xmlns="http://www.w3.org/2000/svg">
<path d="M22.9876 13.8255C22.9883 6.16522 31.945 2.20936 37.5787 7.05384L38.1123 7.55042L38.6618 8.10096C39.6165 9.05737 39.6216 10.6065 38.6734 11.5692C37.7162 12.5411 36.1521 12.5463 35.1884 11.5808L34.639 11.0303C32.152 8.53872 27.9007 10.3022 27.8999 13.8255V27.964C27.8999 30.6816 25.701 32.8847 22.9884 32.8847H8.87611C5.35942 32.8855 3.5993 37.1446 6.08621 39.6361L24.3186 57.9025C26.8056 60.3941 31.0569 58.6306 31.0577 55.1074V40.9689C31.0577 38.2513 33.2566 36.0481 35.9692 36.0481H50.0815C53.5982 36.0473 55.3583 31.7882 52.8714 29.2967L52.2857 28.7099C51.3362 27.7586 51.3251 26.2196 52.2609 25.2549C53.2158 24.2705 54.7901 24.2593 55.759 25.2299L56.3447 25.8168C61.9258 31.4082 57.9739 40.9688 50.0815 40.9696H38.4257C37.0694 40.9697 35.97 42.0712 35.97 43.43V55.1074C35.9692 63.0145 26.4263 66.9738 20.8453 61.3824L2.61275 43.116C-2.96826 37.5245 0.983776 27.964 8.87611 27.9632H20.5319C21.8882 27.9631 22.9876 26.8616 22.9876 25.5028V13.8255Z" fill="url(#paint0_linear_950_3294)"/>
<path d="M38.501 21.4713C38.8348 23.5017 40.4232 25.093 42.4498 25.4274L45.9154 25.9993L42.4498 26.5712C40.4232 26.9056 38.8348 28.497 38.501 30.5274L37.9301 33.9995L37.3593 30.5274C37.0255 28.497 35.4371 26.9056 33.4105 26.5712L29.9449 25.9993L33.4105 25.4274C35.4371 25.093 37.0255 23.5017 37.3593 21.4713L37.9301 17.9992L38.501 21.4713Z" fill="url(#paint1_linear_950_3294)"/>
<path d="M50.0796 5.71326C50.7644 9.87809 54.0226 13.1424 58.1797 13.8284L63.8824 14.7694L58.1797 15.7106C54.0226 16.3966 50.7644 19.6609 50.0796 23.8257L49.1403 29.539L48.201 23.8257C47.5163 19.6609 44.2581 16.3966 40.1011 15.7106L34.3984 14.7694L40.1011 13.8284C44.2581 13.1424 47.5163 9.87808 48.201 5.71326L49.1403 0L50.0796 5.71326Z" fill="url(#paint2_linear_950_3294)"/>
<path d="M166.871 63.8506L171.641 57.4106L166.945 51.008H168.846L172.572 56.048H172.721L176.466 51.008H178.292L173.597 57.3546L178.348 63.8506H176.466L172.665 58.6986H172.516L168.697 63.8506H166.871Z" fill="#E8EAED"/>
<path d="M155.493 63.8506V51.008H161.455C162.3 51.008 162.971 51.1386 163.468 51.4C163.965 51.6613 164.319 52.0346 164.53 52.52C164.741 52.9929 164.847 53.5653 164.847 54.2373C164.847 54.7849 164.772 55.2702 164.623 55.6933C164.474 56.104 164.238 56.44 163.915 56.7013C163.604 56.9626 163.188 57.1493 162.667 57.2613V57.336C163.3 57.448 163.785 57.6533 164.12 57.952C164.455 58.2382 164.685 58.5991 164.809 59.0346C164.933 59.4702 164.996 59.9493 164.996 60.472C164.996 60.92 164.94 61.3493 164.828 61.76C164.729 62.1706 164.548 62.5315 164.288 62.8426C164.039 63.1537 163.679 63.4026 163.207 63.5893C162.735 63.7635 162.126 63.8506 161.381 63.8506H155.493ZM157.095 62.4693H161.008C161.617 62.4693 162.095 62.4009 162.443 62.264C162.791 62.1146 163.033 61.8782 163.17 61.5546C163.319 61.2186 163.393 60.7893 163.393 60.2666C163.393 59.7315 163.312 59.3022 163.151 58.9786C163.002 58.6426 162.754 58.4062 162.406 58.2693C162.058 58.12 161.592 58.0453 161.008 58.0453H157.095V62.4693ZM157.095 56.6453H160.934C161.455 56.6453 161.884 56.5706 162.219 56.4213C162.567 56.272 162.822 56.0417 162.983 55.7306C163.157 55.4071 163.244 55.0089 163.244 54.536C163.244 54.0133 163.176 53.5964 163.039 53.2853C162.915 52.9742 162.685 52.7502 162.35 52.6133C162.014 52.464 161.542 52.3893 160.934 52.3893H157.095V56.6453Z" fill="#E8EAED"/>
<path d="M141.415 63.8506L146.259 51.008H148.271L153.097 63.8506H151.439L150.116 60.3413H144.359L143.036 63.8506H141.415ZM144.843 58.9413H149.631L147.284 52.6506H147.191L144.843 58.9413Z" fill="#E8EAED"/>
<path d="M132.73 63.8506V51.008H134.333V62.432H140.314V63.8506H132.73Z" fill="#E8EAED"/>
<path d="M119.797 64C118.803 64 117.977 63.9502 117.319 63.8506C116.673 63.7386 116.157 63.5457 115.772 63.272C115.399 62.9982 115.126 62.6186 114.952 62.1333C114.778 61.6355 114.667 61.0071 114.617 60.248C114.567 59.4764 114.542 58.5368 114.542 57.4293C114.542 56.3217 114.567 55.3884 114.617 54.6293C114.667 53.8577 114.778 53.2293 114.952 52.744C115.126 52.2462 115.399 51.8604 115.772 51.5866C116.157 51.3128 116.673 51.1262 117.319 51.0266C117.977 50.9146 118.803 50.8586 119.797 50.8586C120.79 50.8586 121.61 50.9146 122.256 51.0266C122.914 51.1262 123.43 51.3128 123.803 51.5866C124.188 51.8604 124.467 52.2462 124.641 52.744C124.815 53.2293 124.927 53.8577 124.976 54.6293C125.026 55.3884 125.051 56.3217 125.051 57.4293C125.051 58.5368 125.026 59.4764 124.976 60.248C124.927 61.0071 124.815 61.6355 124.641 62.1333C124.467 62.6186 124.188 62.9982 123.803 63.272C123.43 63.5457 122.914 63.7386 122.256 63.8506C121.61 63.9502 120.79 64 119.797 64ZM119.797 62.6186C120.48 62.6186 121.045 62.6 121.492 62.5626C121.939 62.5129 122.293 62.4071 122.554 62.2453C122.815 62.0835 123.014 61.8222 123.151 61.4613C123.287 61.088 123.368 60.5777 123.393 59.9306C123.43 59.2835 123.449 58.4497 123.449 57.4293C123.449 56.4089 123.43 55.5751 123.393 54.928C123.368 54.2809 123.287 53.7768 123.151 53.416C123.014 53.0426 122.815 52.7751 122.554 52.6133C122.293 52.4515 121.939 52.352 121.492 52.3146C121.045 52.2648 120.48 52.24 119.797 52.24C119.113 52.24 118.548 52.2648 118.101 52.3146C117.666 52.352 117.312 52.4515 117.039 52.6133C116.778 52.7751 116.579 53.0426 116.443 53.416C116.319 53.7768 116.238 54.2809 116.201 54.928C116.163 55.5751 116.145 56.4089 116.145 57.4293C116.145 58.4497 116.163 59.2835 116.201 59.9306C116.238 60.5777 116.319 61.088 116.443 61.4613C116.579 61.8222 116.778 62.0835 117.039 62.2453C117.312 62.4071 117.666 62.5129 118.101 62.5626C118.548 62.6 119.113 62.6186 119.797 62.6186Z" fill="#E8EAED"/>
<path d="M109.658 63.8506V51.008H111.261V63.8506H109.658Z" fill="#E8EAED"/>
<path d="M95.7621 63.8506L100.532 57.4106L95.8366 51.008H97.7371L101.464 56.048H101.613L105.358 51.008H107.184L102.488 57.3546L107.24 63.8506H105.358L101.557 58.6986H101.408L97.5881 63.8506H95.7621Z" fill="#E8EAED"/>
<path d="M85.8583 63.8506V51.008H94.1869V52.3893H87.4607V56.664H93.3112V58.064H87.4607V62.4693H94.1869V63.8506H85.8583Z" fill="#E8EAED"/>
<path d="M73.0122 63.8506V51.008H77.0741C78.1299 51.008 78.9932 51.0577 79.664 51.1573C80.3347 51.2569 80.8626 51.4373 81.2477 51.6986C81.6452 51.96 81.9371 52.3333 82.1234 52.8186C82.3098 53.304 82.4278 53.92 82.4774 54.6666C82.5271 55.4133 82.552 56.3342 82.552 57.4293C82.552 58.5244 82.5271 59.4453 82.4774 60.192C82.4278 60.9386 82.3098 61.5546 82.1234 62.04C81.9371 62.5253 81.6452 62.8986 81.2477 63.16C80.8626 63.4213 80.3347 63.6017 79.664 63.7013C78.9932 63.8009 78.1299 63.8506 77.0741 63.8506H73.0122ZM74.6146 62.4693H76.8132C77.5958 62.4693 78.2417 62.4506 78.751 62.4133C79.2603 62.376 79.664 62.2826 79.9621 62.1333C80.2602 61.9715 80.4776 61.7164 80.6142 61.368C80.7508 61.0071 80.8378 60.5093 80.8751 59.8746C80.9247 59.24 80.9496 58.4249 80.9496 57.4293C80.9496 56.4337 80.9247 55.6249 80.8751 55.0026C80.8378 54.368 80.7446 53.8702 80.5956 53.5093C80.4589 53.1484 80.2416 52.8933 79.9434 52.744C79.6453 52.5822 79.2416 52.4826 78.7323 52.4453C78.2355 52.408 77.5958 52.3893 76.8132 52.3893H74.6146V62.4693Z" fill="#E8EAED"/>
<path d="M141.446 45.392L155.852 25.152L141.68 5.0293H149.41L159.775 19.6373H160.244L170.55 5.0293H178.104L163.933 24.976L178.28 45.392H170.55L159.951 30.3733H159.482L148.942 45.392H141.446Z" fill="#E8EAED"/>
<path d="M113.157 45.392V5.0293H119.774V39.584H137.635V45.392H113.157Z" fill="#E8EAED"/>
<path d="M73.0122 45.392V5.0293H86.1879C89.5844 5.0293 92.3561 5.2053 94.5033 5.5573C96.6895 5.87019 98.4072 6.45685 99.6565 7.3173C100.906 8.17774 101.804 9.37063 102.35 10.896C102.936 12.4213 103.307 14.3573 103.463 16.704C103.619 19.0506 103.697 21.8862 103.697 25.2106C103.697 28.5351 103.619 31.3706 103.463 33.7173C103.307 36.064 102.936 38 102.35 39.5253C101.804 41.0506 100.906 42.2435 99.6565 43.104C98.4072 43.9644 96.6895 44.5706 94.5033 44.9226C92.3561 45.2355 89.5844 45.392 86.1879 45.392H73.0122ZM79.6294 39.76H85.6024C87.7885 39.76 89.5844 39.7209 90.9898 39.6426C92.4342 39.5253 93.5664 39.2515 94.3862 38.8213C95.206 38.352 95.8111 37.6089 96.2015 36.592C96.5919 35.5751 96.8261 34.1475 96.9042 32.3093C97.0213 30.432 97.0799 28.0657 97.0799 25.2106C97.0799 22.3555 97.0213 20.0089 96.9042 18.1706C96.8261 16.3324 96.5724 14.9049 96.1429 13.888C95.7526 12.832 95.1279 12.0889 94.2691 11.6586C93.4492 11.1893 92.3366 10.9155 90.9312 10.8373C89.5258 10.72 87.7495 10.6613 85.6024 10.6613H79.6294V39.76Z" fill="#E8EAED"/>
<defs>
<linearGradient id="paint0_linear_950_3294" x1="63.9461" y1="-0.0620795" x2="-0.115869" y2="63.8838" gradientUnits="userSpaceOnUse">
<stop offset="0.2" stop-color="#F4DC7C"/>
<stop offset="0.4" stop-color="#F06058"/>
<stop offset="0.8" stop-color="#4044E8"/>
</linearGradient>
<linearGradient id="paint1_linear_950_3294" x1="63.9461" y1="-0.0620795" x2="-0.115869" y2="63.8838" gradientUnits="userSpaceOnUse">
<stop offset="0.2" stop-color="#F4DC7C"/>
<stop offset="0.4" stop-color="#F06058"/>
<stop offset="0.8" stop-color="#4044E8"/>
</linearGradient>
<linearGradient id="paint2_linear_950_3294" x1="63.9461" y1="-0.0620795" x2="-0.115869" y2="63.8838" gradientUnits="userSpaceOnUse">
<stop offset="0.2" stop-color="#F4DC7C"/>
<stop offset="0.4" stop-color="#F06058"/>
<stop offset="0.8" stop-color="#4044E8"/>
</linearGradient>
</defs>
</svg>
